<svg
  width="45"
  height="45"
  viewBox="0 0 45 45"
  fill="none"
  xmlns="http://www.w3.org/2000/svg"
>
<path
    d="M18.1841 0.118912C16.9442 0.426693 15.9944 1.08622 15.1063 2.26458L14.8776 2.56357L14.4204 2.45805C13.752 2.31735 12.5825 2.33493 12.0197 2.50201C11.3162 2.71307 10.9116 2.9417 10.3928 3.43415C9.575 4.208 9.10893 5.12255 8.98582 6.23056C8.93305 6.74939 8.92426 6.75819 8.65165 6.75819C8.50216 6.75819 8.08006 6.83733 7.71952 6.94286C4.57136 7.81344 2.97089 11.1023 3.98217 14.6286C4.02614 14.7781 3.92941 14.8572 3.34023 15.1298C1.10662 16.2027 -0.159679 18.4099 0.0161954 20.9249C0.112927 22.3495 0.675726 23.6686 1.60786 24.6798L2.15308 25.269L1.73977 25.7351C1.19456 26.3506 0.89557 26.9134 0.68452 27.7401C0.376739 28.9536 0.508645 30.1495 1.08024 31.3455C1.61666 32.4623 2.81261 33.4824 3.83268 33.711C3.98217 33.7374 4.11408 33.7902 4.11408 33.8253C4.11408 33.8517 4.05252 34.2123 3.97338 34.6256C3.78871 35.6017 3.85027 36.8943 4.11408 37.7561C4.43066 38.7586 4.79999 39.3654 5.56505 40.1392C6.76979 41.3528 8.13282 41.8804 10.0059 41.8716C10.7358 41.8628 11.2106 41.8101 11.7119 41.6781C12.0988 41.5726 12.4154 41.4935 12.4242 41.4935C12.433 41.4935 12.5737 41.7573 12.7407 42.0827C13.1716 42.9532 14.2445 44.0085 15.1063 44.4218C16.8562 45.2484 18.7733 45.1781 20.3737 44.2459C21.0508 43.8502 21.8159 43.1203 22.2204 42.4872L22.5194 42.0299L22.8448 42.5311C23.3108 43.2522 24.2166 44.0612 24.9728 44.4306C26.5205 45.1956 28.2441 45.1868 29.8798 44.4218C30.7415 44.0085 31.8144 42.9532 32.2453 42.0914C32.4124 41.7573 32.5531 41.4935 32.5618 41.4935C32.5706 41.4935 32.8872 41.5726 33.2741 41.6781C33.7754 41.8101 34.2502 41.8628 34.9801 41.8716C36.2025 41.8804 36.9148 41.7221 37.9612 41.2121C38.5592 40.9307 38.8494 40.7108 39.421 40.1392C40.186 39.3654 40.5554 38.7586 40.8719 37.7561C41.1357 36.8943 41.1973 35.6017 41.0126 34.6256C40.9335 34.2123 40.8719 33.8517 40.8719 33.8253C40.8719 33.7902 41.0038 33.7374 41.1621 33.711C41.7425 33.5879 42.6307 33.0339 43.1143 32.5063C44.8555 30.5804 44.9083 27.5906 43.2462 25.7351L42.8329 25.269L43.3782 24.6798C44.6796 23.2728 45.2512 21.2239 44.8819 19.3332C44.6972 18.3835 44.108 17.17 43.5101 16.5017C43.0176 15.9476 42.0943 15.2969 41.3996 15.0067C41.0126 14.8484 40.9511 14.7957 41.0038 14.6374C41.2237 13.8811 41.3292 12.9754 41.2852 12.2103C41.1885 10.5395 40.6961 9.37872 39.6496 8.34106C39.2627 7.95414 38.7614 7.55842 38.4537 7.40013C37.8733 7.09235 36.7653 6.75819 36.3432 6.75819C36.0793 6.75819 36.0706 6.74939 35.965 6.08107C35.7012 4.38388 34.558 2.99446 33.0631 2.53719C32.4211 2.33493 31.3043 2.29976 30.5657 2.45805L30.1084 2.56357L29.8885 2.26458C29.7654 2.0975 29.4137 1.71058 29.0883 1.394C27.3296 -0.347157 24.4892 -0.479065 22.9415 1.1214L22.5458 1.52591L22.1764 1.15657C21.2267 0.215641 19.5647 -0.215252 18.1841 0.118912ZM20.3913 1.63144C20.9101 1.86007 21.4026 2.29976 21.64 2.74824L21.8335 3.10878L21.8599 19.4036L21.8774 35.6984L21.4202 35.3291C20.3737 34.4937 18.87 34.0452 17.4366 34.1331C16.4869 34.1947 15.3877 34.52 14.7809 34.9245C14.4028 35.1796 14.3588 35.2411 14.3324 35.5665C14.306 35.8743 14.3412 35.9622 14.5435 36.1205C14.8512 36.3667 15.0095 36.3579 15.6339 36.0414C18.2808 34.7047 21.5609 36.1117 21.8335 38.7147C21.8687 39.0664 21.8423 39.4709 21.7543 39.9106C21.2619 42.2409 19.4592 43.7271 17.3047 43.5776C15.5899 43.4545 14.2357 42.3816 13.6993 40.7108C13.3915 39.7347 13.2068 39.6732 11.9757 40.1217C9.39912 41.0538 6.79617 40.1744 5.70575 38.0024C5.22209 37.035 5.13415 35.3906 5.50349 34.2298C5.7673 33.4032 6.66427 32.3128 7.54364 31.7764C7.76348 31.6357 7.98333 31.4686 8.04488 31.3895C8.34387 31.0025 7.98333 30.3254 7.48208 30.3254C6.96325 30.3254 5.67937 31.2927 5.12536 32.0842C4.87914 32.4447 4.86155 32.4535 4.47462 32.3919C3.64801 32.2688 2.78623 31.6093 2.36413 30.7739C1.93323 29.9385 1.81891 28.7425 2.09152 27.8456C2.22343 27.3883 2.6807 26.7464 3.16436 26.3419L3.57766 25.9901L4.28996 26.1396C4.67688 26.2187 5.36279 26.2803 5.82007 26.2803C6.51477 26.2803 6.67306 26.2539 6.87532 26.0956C7.05119 25.9549 7.10395 25.8406 7.10395 25.5856C7.10395 25.0228 6.91049 24.9261 5.66178 24.8645C4.15805 24.7854 3.57766 24.5831 2.83899 23.8972C1.82771 22.9475 1.30008 21.5229 1.4144 20.0807C1.59028 18.0933 2.85658 16.6336 4.9319 16.0356C5.50349 15.8685 5.74092 15.6135 5.67057 15.2266C5.64419 15.0859 5.52108 14.6813 5.38917 14.3208C5.17812 13.7492 5.14295 13.5206 5.13415 12.606C5.12536 11.7091 5.16054 11.4628 5.32762 10.9528C5.58264 10.2317 6.11905 9.4051 6.57633 9.04456C7.315 8.46417 8.49337 8.08604 9.60138 8.07725C9.83881 8.07725 10.0147 8.01569 10.1554 7.88379C10.3313 7.71671 10.3576 7.61118 10.3576 7.01321C10.3576 5.615 10.9204 4.56855 11.9669 4.04092C12.4945 3.76831 12.6264 3.73314 13.242 3.74193C13.6113 3.75073 14.0686 3.80349 14.2621 3.87384C14.5874 3.98816 14.5962 3.99695 14.6314 4.47181C14.7369 6.00193 15.3173 6.68784 16.0296 6.12504C16.2494 5.95796 16.267 5.8964 16.2231 5.53586C16.1879 5.31601 16.1263 4.95547 16.0824 4.73563C15.968 4.2168 16.056 3.44295 16.2582 3.09999C16.6628 2.43166 17.674 1.6754 18.4215 1.48194C18.9403 1.35883 19.934 1.42918 20.3913 1.63144ZM27.1713 1.73696C27.8308 2.04474 28.6047 2.801 28.9388 3.46933C29.0619 3.71555 29.2202 3.96178 29.2994 4.02333C29.4928 4.19041 29.8622 4.16403 30.4953 3.94419C30.8822 3.81228 31.2868 3.74193 31.744 3.74193C32.3508 3.73314 32.4915 3.76831 33.0191 4.04092C34.0656 4.56855 34.6284 5.615 34.6284 7.00441C34.6284 7.83102 34.7955 8.07725 35.3671 8.07725C36.4927 8.08604 37.671 8.45538 38.4097 9.04456C39.1835 9.66012 39.7903 10.944 39.8782 12.1663C39.931 12.9578 39.7551 14.0482 39.4649 14.6901C39.0956 15.4992 39.2627 15.7894 40.2828 16.1059C41.8217 16.5896 42.9033 17.6185 43.3869 19.0694C43.5892 19.6674 43.6068 21.1096 43.4309 21.7515C43.1143 22.8771 42.3141 23.9412 41.3556 24.4952C40.5026 24.9876 40.5202 25.5064 41.3996 26.0517C42.7362 26.8783 43.3078 28.2853 42.9473 29.833C42.5691 31.4246 41.4523 32.4359 40.0629 32.4359C39.166 32.4359 39.0252 32.7437 39.3946 33.9309C40.4235 37.2725 38.8933 39.981 35.71 40.4558C34.8922 40.5701 33.9601 40.4558 33.0279 40.1217C31.7792 39.6732 31.6033 39.7259 31.2868 40.7108C30.7503 42.3816 29.3961 43.4545 27.6813 43.5776C26.0545 43.6919 24.5244 42.8301 23.8297 41.4055C23.4164 40.5701 23.2844 39.8139 23.2844 38.2574V36.9207H25.0344H26.7844L26.8899 37.1845C27.0306 37.5275 27.523 38.0287 27.9275 38.231C29.7918 39.1807 31.8759 37.1845 30.9878 35.2939C30.8822 35.0477 30.6272 34.7135 30.4338 34.5376C29.3257 33.5351 27.4967 33.9221 26.8811 35.2851L26.7756 35.5137H25.0256H23.2844V31.8204V28.127H25.6588H28.0243L28.93 28.4787L29.8358 28.8305L29.8446 29.6395C29.8446 30.2727 29.8973 30.5716 30.0468 30.9586C30.3194 31.6709 30.979 32.3568 31.7089 32.7173C32.2629 32.9899 32.3508 33.0075 33.2214 33.0075C34.0656 33.0075 34.1887 32.9811 34.6723 32.7525C36.3959 31.8995 37.0906 29.789 36.1937 28.1094C35.5165 26.8343 33.9776 26.0692 32.641 26.3506C31.9375 26.5001 31.2692 26.8255 30.8647 27.23L30.5129 27.5818L29.4049 27.1509L28.2969 26.72H25.7907H23.2844V24.5655V22.4111H28.42H33.5555L33.705 22.8507C34.0216 23.8005 34.9098 24.6447 35.9211 24.9612C37.2489 25.3657 38.4712 25.014 39.4473 23.95C40.6697 22.6221 40.5993 20.6347 39.2803 19.3157C39.0428 19.0782 38.6207 18.7792 38.3393 18.6473C37.8997 18.4363 37.7326 18.4099 36.9148 18.4099C36.0881 18.4099 35.9386 18.4363 35.499 18.6561C34.7779 19.0079 34.2502 19.5091 33.9425 20.1423C33.793 20.45 33.6523 20.7666 33.6259 20.8458C33.5819 20.9953 33.2566 21.0041 28.4288 21.0041H23.2844V18.9375V16.871H25.7907H28.2969L29.3961 16.4313L30.4953 15.9916L30.8559 16.3434C32.131 17.5833 34.1535 17.5921 35.5078 16.3697C37.2489 14.8045 36.8092 11.8937 34.6723 10.8385C34.1887 10.6098 34.0656 10.5835 33.2214 10.5835C32.3508 10.5835 32.2629 10.6011 31.7089 10.8737C30.979 11.2342 30.3194 11.9201 30.0468 12.6324C29.8973 13.0193 29.8446 13.3183 29.8446 13.9515L29.8358 14.7605L28.93 15.1122L28.0243 15.464H25.6588H23.2844V11.9905V8.51694H24.7618H26.2304L26.4678 8.94783C27.3296 10.5131 29.5896 10.4779 30.425 8.87748C31.0054 7.76067 30.5657 6.40644 29.4225 5.84364C28.2969 5.28084 26.9251 5.7645 26.3798 6.90768L26.2391 7.19788H24.753H23.2757L23.302 5.10497C23.3284 3.15275 23.3372 2.99446 23.5219 2.6603C23.7769 2.17665 24.3661 1.6842 24.8673 1.52591C25.5093 1.31486 26.4854 1.4028 27.1713 1.73696ZM29.0092 7.27702C29.1938 7.47048 29.2642 7.61998 29.2642 7.85741C29.2642 8.30589 28.8773 8.69281 28.4288 8.69281C28.1914 8.69281 28.0419 8.62246 27.8484 8.43779C27.6637 8.24433 27.5934 8.09484 27.5934 7.85741C27.5934 7.61998 27.6637 7.47048 27.8484 7.27702C28.0419 7.09235 28.1914 7.022 28.4288 7.022C28.6662 7.022 28.8157 7.09235 29.0092 7.27702ZM33.9952 12.0872C35.0417 12.5181 35.4814 13.8284 34.9274 14.8572C34.2327 16.1235 32.3772 16.2203 31.5769 15.0331C30.68 13.7052 31.5769 11.9465 33.1598 11.9465C33.4412 11.9465 33.8106 12.008 33.9952 12.0872ZM37.6886 19.9136C38.4273 20.2214 38.8845 20.9249 38.8845 21.7515C38.8758 22.5518 38.48 23.1849 37.7589 23.5191C37.2049 23.7741 36.6509 23.7829 36.1233 23.5454C35.3319 23.1937 34.9537 22.6045 34.945 21.7515C34.945 20.9337 35.3934 20.2302 36.1233 19.9136C36.5278 19.7378 37.2753 19.7378 37.6886 19.9136ZM33.8106 27.8192C34.6372 28.0654 35.156 28.7865 35.156 29.6835C35.1472 30.853 34.3558 31.6445 33.1774 31.6445C31.8935 31.6445 30.9526 30.4309 31.278 29.2174C31.4626 28.5315 31.9023 28.0566 32.5706 27.8192C33.0191 27.6609 33.2653 27.6609 33.8106 27.8192ZM29.3082 35.4698C29.7654 35.6896 29.9061 36.1733 29.6599 36.6481C29.2906 37.378 28.121 37.079 28.121 36.2612C28.121 35.8567 28.2353 35.6368 28.5431 35.4786C28.8509 35.3115 28.9564 35.3115 29.3082 35.4698Z"
    fill="url(#paint0_linear_27_491)"
  />
<path
    d="M17.0497 8.13C16.3901 8.30588 15.8185 8.63124 15.1238 9.23801C14.4291 9.83599 13.9455 10.0998 13.497 10.0998C13.0485 10.0998 12.8111 9.98548 12.301 9.537C11.8174 9.10611 11.5712 9.04455 11.2546 9.27319C10.5863 9.73926 11.0435 10.601 12.2923 11.2518C12.6176 11.4189 12.8287 11.4628 13.4354 11.4628C14.095 11.4628 14.2533 11.4277 14.7545 11.1902C15.0711 11.0407 15.5811 10.689 15.8977 10.4076C17.0057 9.44027 17.7883 9.22042 18.8788 9.58097L19.5031 9.78322L19.7493 9.59856C20.2682 9.21163 20.2066 8.65763 19.6174 8.35864C18.8964 7.9893 17.8939 7.90136 17.0497 8.13Z"
    fill="url(#paint1_linear_27_491)"
  />
<path
    d="M16.3814 12.3422C15.9065 12.8083 16.1791 13.3887 16.9266 13.5294C17.5333 13.6349 17.8587 13.8108 18.1049 14.1537C18.3072 14.4439 18.4215 15.121 18.3248 15.4992C18.1929 16.018 17.419 16.5984 16.8386 16.6072C16.5221 16.6072 16.1615 16.9677 16.1615 17.2667C16.1615 17.4074 16.267 17.6097 16.4253 17.7679C16.6804 18.023 16.7243 18.0318 17.1552 17.979C18.1225 17.8471 19.0019 17.2579 19.4592 16.4137C19.8021 15.7894 19.8725 14.7429 19.6263 14.0394C19.3888 13.3711 18.5798 12.5621 17.8939 12.307C17.1904 12.052 16.654 12.0608 16.3814 12.3422Z"
    fill="url(#paint2_linear_27_491)"
  />
<path
    d="M7.89539 15.2178C7.61399 15.3673 7.48209 15.7366 7.59641 16.0532C7.65796 16.2467 7.86022 16.3874 8.51096 16.7127C9.45189 17.17 10.0762 17.7152 10.5687 18.4715C10.8325 18.8936 11.2458 19.8873 11.237 20.0983C11.237 20.1335 11.0699 20.239 10.8765 20.327C9.88278 20.793 8.73959 21.9802 8.73959 22.5606C8.73959 22.9387 9.02099 23.2025 9.41671 23.2025C9.63656 23.2025 9.80364 23.0794 10.3488 22.5078C11.4305 21.391 12.6704 20.9425 14.0158 21.1712C15.8449 21.4965 17.1552 22.8508 17.4102 24.6975C17.5333 25.5944 17.7004 25.8406 18.1929 25.8406C18.5974 25.8406 18.8876 25.5241 18.8876 25.0756C18.8876 24.0819 18.3248 22.5606 17.674 21.7779C16.5748 20.4677 15.1766 19.7817 13.4794 19.729L12.6 19.7026L12.4593 19.2277C12.0197 17.7504 10.7709 16.2555 9.39033 15.5695C8.52854 15.1387 8.20317 15.0595 7.89539 15.2178Z"
    fill="url(#paint3_linear_27_491)"
  />
<path
    d="M13.1189 25.6472C12.0284 26.4386 11.4305 27.8632 11.6591 29.1119C11.9493 30.686 13.0925 31.8204 14.6578 32.093C15.2909 32.2073 16.0032 32.1106 16.6891 31.8116C17.1728 31.6005 17.3311 31.3983 17.3223 31.0025C17.3047 30.4573 16.8122 30.2199 16.2143 30.4925C15.3173 30.8882 14.4379 30.7739 13.7784 30.1759C12.7056 29.1998 12.7935 27.617 13.9719 26.7728C14.4115 26.465 14.5347 26.166 14.394 25.823C14.1917 25.3306 13.6553 25.2602 13.1189 25.6472Z"
    fill="url(#paint4_linear_27_491)"
  />
<path
    d="M32.896 13.2655C32.4827 13.4326 32.3947 14.0306 32.7377 14.3647C33.0807 14.7165 33.5819 14.6461 33.793 14.224C33.9776 13.8723 33.96 13.7228 33.6698 13.4326C33.406 13.1688 33.2302 13.1336 32.896 13.2655Z"
    fill="url(#paint5_linear_27_491)"
  />
<path
    d="M36.475 21.2503C36.1673 21.5668 36.1409 21.857 36.3959 22.1824C36.7564 22.6397 37.6182 22.3407 37.6182 21.7603C37.6182 21.4789 37.2929 21.1184 36.9851 21.0392C36.7916 20.9952 36.6861 21.0392 36.475 21.2503Z"
    fill="url(#paint6_linear_27_491)"
  />
<path
    d="M32.7377 29.2262C32.3244 29.6307 32.5355 30.2639 33.1071 30.3782C33.3445 30.4222 33.4324 30.387 33.6699 30.1583C33.8985 29.9209 33.9337 29.833 33.8897 29.5955C33.7754 29.024 33.1422 28.8129 32.7377 29.2262Z"
    fill="url(#paint7_linear_27_491)"
  />
<defs>
<linearGradient
      id="paint0_linear_27_491"
      x1="9"
      y1="38.5"
      x2="37.5"
      y2="5.5"
      gradientUnits="userSpaceOnUse"
    >
<stop stop-color="#AB4EE9" />
<stop offset="1" stop-color="#2FFAA1" />
</linearGradient>
<linearGradient
      id="paint1_linear_27_491"
      x1="12.7788"
      y1="10.9633"
      x2="14.0843"
      y2="6.96136"
      gradientUnits="userSpaceOnUse"
    >
<stop stop-color="#AB4EE9" />
<stop offset="1" stop-color="#2FFAA1" />
</linearGradient>
<linearGradient
      id="paint2_linear_27_491"
      x1="16.871"
      y1="17.1553"
      x2="20.4325"
      y2="14.6118"
      gradientUnits="userSpaceOnUse"
    >
<stop stop-color="#AB4EE9" />
<stop offset="1" stop-color="#2FFAA1" />
</linearGradient>
<linearGradient
      id="paint3_linear_27_491"
      x1="9.82214"
      y1="24.2953"
      x2="16.5301"
      y2="16.0665"
      gradientUnits="userSpaceOnUse"
    >
<stop stop-color="#AB4EE9" />
<stop offset="1" stop-color="#2FFAA1" />
</linearGradient>
<linearGradient
      id="paint4_linear_27_491"
      x1="12.7533"
      y1="31.1659"
      x2="17.0676"
      y2="26.9322"
      gradientUnits="userSpaceOnUse"
    >
<stop stop-color="#AB4EE9" />
<stop offset="1" stop-color="#2FFAA1" />
</linearGradient>
<linearGradient
      id="paint5_linear_27_491"
      x1="32.8034"
      y1="14.3879"
      x2="33.6905"
      y2="13.3689"
      gradientUnits="userSpaceOnUse"
    >
<stop stop-color="#AB4EE9" />
<stop offset="1" stop-color="#2FFAA1" />
</linearGradient>
<linearGradient
      id="paint6_linear_27_491"
      x1="36.5017"
      y1="22.2057"
      x2="37.3753"
      y2="21.1836"
      gradientUnits="userSpaceOnUse"
    >
<stop stop-color="#AB4EE9" />
<stop offset="1" stop-color="#2FFAA1" />
</linearGradient>
<linearGradient
      id="paint7_linear_27_491"
      x1="32.7987"
      y1="30.1946"
      x2="33.6754"
      y2="29.1793"
      gradientUnits="userSpaceOnUse"
    >
<stop stop-color="#AB4EE9" />
<stop offset="1" stop-color="#2FFAA1" />
</linearGradient>
</defs>
</svg>
