<svg
  width="45"
  height="45"
  viewBox="0 0 45 45"
  fill="none"
  xmlns="http://www.w3.org/2000/svg"
>
<path
    d="M3.93431 0.169945C2.44312 0.556717 1.19302 1.56759 0.541187 2.89491C0.335814 3.30805 0.130441 3.897 0.0768654 4.21344C0.0143605 4.61779 -0.0124273 8.95137 0.00543123 18.7612L0.032219 32.7377L0.228663 33.3178C0.648338 34.5133 1.64842 35.6736 2.74672 36.245C3.93431 36.8515 3.90752 36.8515 8.94363 36.8867L13.4708 36.9218V36.1746V35.4187H9.22936C6.46129 35.4187 4.83616 35.3835 4.52364 35.322C3.33605 35.0759 2.35383 34.3111 1.83593 33.2475L1.55019 32.6498L1.52341 25.9428L1.50555 19.2447H3.8718C6.5238 19.2447 6.74703 19.2095 6.9524 18.7173C7.05062 18.48 7.05062 18.3745 6.91668 17.9613C6.54165 16.7834 6.83632 15.5792 7.6846 14.7969C9.39902 13.2234 12.0689 14.0145 12.6314 16.2736C12.7832 16.8889 12.7654 17.1526 12.4707 18.1635C12.3903 18.4448 12.3903 18.5854 12.4707 18.7612C12.6761 19.2008 12.9707 19.2447 15.6138 19.2447H18.0247V21.4423V23.6486L17.5872 23.5871C16.9532 23.508 16.0245 23.6925 15.2566 24.0529C12.9707 25.1341 12.0867 27.9031 13.31 30.1621C13.6136 30.7335 14.5244 31.6213 15.078 31.9026L15.4263 32.0784L15.6584 31.5774C16.0335 30.7511 16.0335 30.7423 15.5691 30.4434C15.087 30.1534 14.6405 29.582 14.4083 28.9843C14.194 28.4041 14.2565 27.2614 14.5333 26.734C14.8369 26.1538 15.3995 25.6088 15.962 25.3363C16.3906 25.1341 16.5692 25.099 17.2211 25.099C17.6943 25.1078 18.1229 25.1605 18.364 25.2484C18.6497 25.3539 18.8015 25.3715 18.9801 25.3012C19.4444 25.1254 19.4444 25.1254 19.4534 22.0751V19.2447H21.3642H23.2662L23.2751 19.9655C23.284 21.6796 24.2216 23.1563 25.7574 23.9035C26.061 24.0442 26.4271 24.1936 26.5789 24.22C26.8468 24.2727 26.8468 24.2727 26.954 23.7629C27.0075 23.4728 27.079 23.1563 27.1058 23.0509C27.1415 22.9102 27.1058 22.8399 26.9897 22.8047C25.6771 22.418 24.7752 21.2752 24.7752 19.9919C24.7752 19.6227 24.8377 19.192 24.9359 18.9107C25.1235 18.3745 25.0431 18.0317 24.6949 17.8471C24.5609 17.7855 23.6591 17.7416 21.9982 17.724L19.498 17.7064L19.4712 15.8605L19.4534 14.0145L20.2302 14.0057C22.7572 13.9882 24.7216 12.0543 24.7216 9.57547C24.7216 8.37121 24.302 7.40429 23.3822 6.49011C22.4715 5.58471 21.4803 5.18037 20.1499 5.18037H19.4534V3.33442V1.48848L26.3111 1.50606L33.1598 1.53243L33.7491 1.80492C34.7671 2.2796 35.4457 3.01797 35.785 4.02006C35.9636 4.54747 35.9725 4.72327 35.9725 11.1577V17.7504H33.4277H30.8739L30.6596 17.9701C30.4007 18.2162 30.3828 18.4536 30.5703 18.981C30.6417 19.1832 30.7042 19.4908 30.7042 19.6491V19.9479H31.4632H32.2222V19.6051V19.2535L34.6421 19.2271L37.0619 19.2008L37.2762 18.9546L37.4994 18.6997L37.4726 11.395L37.4458 4.08159L37.2137 3.50143C36.8654 2.61362 36.5351 2.11258 35.8922 1.48848C35.1957 0.81163 34.4635 0.407284 33.508 0.169945C32.8383 -0.00585938 32.4722 -0.00585938 18.7033 0.0029335C5.09511 0.0029335 4.55936 0.0117226 3.93431 0.169945ZM18.0247 4.02885V6.57801L18.2569 6.75381C18.5426 6.97357 18.748 6.98236 19.3105 6.79776C19.9356 6.5868 20.9624 6.66591 21.5518 6.95599C22.1232 7.24607 22.6233 7.73832 22.9179 8.30089C23.2483 8.93379 23.293 9.95345 23.034 10.6391C22.7661 11.3335 22.2482 11.8785 21.525 12.2301C21.0249 12.4762 20.8285 12.5202 20.3017 12.5202C19.9445 12.5202 19.4623 12.4499 19.1676 12.362C18.7122 12.2125 18.6408 12.2125 18.3997 12.3356C18.2569 12.4059 18.114 12.5378 18.0783 12.6081C18.0515 12.6872 18.0247 13.8563 18.0247 15.21V17.6625H16.1138H14.203L14.194 16.8889C14.194 15.6407 13.7833 14.7002 12.8546 13.786C12.176 13.1267 11.551 12.8015 10.5509 12.5817C9.16686 12.2916 7.61317 12.7663 6.56844 13.8124C5.64873 14.7265 5.25584 15.6759 5.25584 16.9768V17.6625H3.38069H1.50555V11.0874C1.50555 4.85513 1.51448 4.47715 1.6752 4.02006C2.06809 2.89491 2.91637 2.05984 4.05039 1.67307C4.56829 1.49727 4.76473 1.49727 11.3099 1.48848H18.0247V4.02885Z"
    fill="url(#paint0_linear_27_501)"
  />
<path
    d="M31.1954 21.7499C29.8203 22.3564 28.6237 22.919 28.5344 23.0069C28.2933 23.2442 28.3201 23.6046 28.6416 24.3166C29.0077 25.1429 29.1148 25.6967 29.0077 26.3032C28.847 27.2789 28.1505 28.1755 27.2397 28.5887C26.6057 28.8788 25.4717 28.8612 24.8109 28.5535C23.7037 28.0437 23.0251 26.9185 23.0251 25.6088C23.0251 25.2836 22.6947 24.9583 22.3465 24.9583C22.15 24.9583 17.4621 26.646 16.8014 26.9449C16.6496 27.024 16.471 27.1998 16.4085 27.3405C16.3103 27.5866 16.3728 27.7888 17.2568 30.1445C17.7836 31.5422 18.1943 32.7289 18.1586 32.7816C18.1318 32.8256 18.0336 32.8695 17.9533 32.8695C17.5604 32.8695 16.4621 33.5024 15.9174 34.0474C15.0334 34.944 14.6405 35.9109 14.6316 37.1855C14.6316 38.3898 15.1048 39.471 16.0067 40.3236C17.3639 41.607 19.2301 41.9234 21.0071 41.185C21.2035 41.1059 21.3732 41.062 21.391 41.0796C21.4178 41.0971 21.7303 41.8971 22.0964 42.864C22.7751 44.6396 22.9894 45 23.3912 45C23.4894 45 25.1235 44.4198 27.0254 43.7166C28.9273 43.0134 30.6328 42.3805 30.8203 42.3102L31.1507 42.1959L31.3293 42.5387C31.5882 43.031 32.2847 43.6815 32.9187 44.0155C33.5438 44.3407 33.517 44.3583 33.7759 43.4881C33.9634 42.8552 33.9545 42.8288 33.7045 42.7673C33.4366 42.7058 32.5526 41.8707 32.5973 41.7388C32.624 41.6597 33.8652 41.1499 34.6063 40.9213C34.776 40.8686 34.8296 40.9301 35.0974 41.4575C35.5171 42.3102 36.5083 43.2771 37.4012 43.699C38.0441 43.9979 38.5263 44.1386 39.3478 44.244L39.7228 44.2968V43.5584V42.82L39.1781 42.7233C38.062 42.53 37.2226 41.9762 36.5886 41.018C36.2672 40.5258 35.9725 39.6028 35.9725 39.0578C35.9725 38.8644 35.6689 38.5128 34.4635 37.3086C32.8741 35.7175 32.7401 35.5154 32.883 34.9264C32.9634 34.61 33.4009 34.2232 33.7402 34.1529C34.2938 34.0474 34.5885 34.2759 37.3298 36.9833L39.9907 39.594L40.4997 39.0842L41.0176 38.5831L40.2496 37.8184L39.4817 37.0449L39.5978 36.6054C39.7675 35.9109 39.7496 34.7594 39.5442 34.0562C39.446 33.7134 39.071 32.6673 38.7049 31.7268C38.3477 30.7862 38.062 29.9951 38.0798 29.9863C38.1245 29.9248 42.4373 32.8783 42.7945 33.2123C43.4999 33.8628 43.4731 33.6079 43.4731 39.26V44.2968H44.2321H45L44.9732 39.0842L44.9464 33.8716L44.6071 33.2035C44.375 32.7377 44.1249 32.4036 43.7946 32.1048C43.5356 31.8762 41.9462 30.7511 40.2586 29.6171C38.5799 28.4832 37.1512 27.4723 37.0887 27.3756C37.0262 27.2789 36.4458 25.7934 35.8029 24.0793C35.0439 22.0751 34.5617 20.906 34.4367 20.8006C34.3385 20.7214 34.1331 20.6511 33.9724 20.6511C33.8116 20.6511 32.6419 21.117 31.1954 21.7499ZM35.8564 28.4305C37.9816 34.0122 38.1334 34.4517 38.178 35.111L38.2227 35.8142L36.8029 34.4342C35.1867 32.8519 34.8742 32.6585 33.9099 32.6585C32.499 32.6585 31.3293 33.8013 31.3293 35.1989C31.3293 36.1219 31.49 36.3856 33.0526 37.9415L34.4813 39.3655L34.2224 39.471C31.999 40.3148 24.0341 43.242 23.9537 43.242C23.9001 43.242 23.5162 42.3717 23.1144 41.3081C22.6233 40.016 22.3107 39.3215 22.1857 39.2424C21.8643 39.0139 21.4982 39.0842 21.0071 39.4446C20.0338 40.1654 18.8015 40.2709 17.7568 39.7171C16.1763 38.8908 15.7031 37.0009 16.6764 35.489C17.1586 34.7506 18.2033 34.188 19.123 34.188C19.6766 34.188 20.0784 33.8892 20.0784 33.4585C20.0784 33.3969 19.632 32.1751 19.0873 30.7335C18.5158 29.2304 18.1229 28.0788 18.1676 28.0437C18.2122 27.9997 18.9533 27.7097 19.8105 27.3932C20.6678 27.0768 21.4357 26.7955 21.516 26.7603C21.6321 26.7164 21.6768 26.7779 21.7214 26.9977C21.8821 27.8591 22.7661 29.0546 23.6323 29.6083C24.3823 30.083 25.0163 30.2588 26.0164 30.2676C27.0254 30.2764 27.579 30.1358 28.3826 29.6523C30.1596 28.6063 30.9721 26.3999 30.3114 24.4749C30.1864 24.132 30.1238 23.8508 30.1506 23.8332C30.1864 23.8244 30.9186 23.4991 31.7758 23.1124C32.633 22.7344 33.392 22.4267 33.4634 22.4355C33.5348 22.4443 34.4635 24.7825 35.8564 28.4305Z"
    fill="url(#paint1_linear_27_501)"
  />
<defs>
<linearGradient
      id="paint0_linear_27_501"
      x1="7.50117"
      y1="31.5887"
      x2="30.8288"
      y2="4.15043"
      gradientUnits="userSpaceOnUse"
    >
<stop stop-color="#AB4EE9" />
<stop offset="1" stop-color="#2FFAA1" />
</linearGradient>
<linearGradient
      id="paint1_linear_27_501"
      x1="20.7063"
      y1="41.4829"
      x2="35.2959"
      y2="20.4098"
      gradientUnits="userSpaceOnUse"
    >
<stop stop-color="#AB4EE9" />
<stop offset="1" stop-color="#2FFAA1" />
</linearGradient>
</defs>
</svg>
