<svg
  width="35"
  height="47"
  viewBox="0 0 35 47"
  fill="none"
  xmlns="http://www.w3.org/2000/svg"
>
<path
    fill-rule="evenodd"
    clip-rule="evenodd"
    d="M22.5189 0.217076C22.8701 0.117228 23.0876 0.0553897 23.1224 0.0459156C23.5303 -0.0706441 24.5891 0.0459156 25.0844 0.269322C25.6867 0.521868 26.4055 1.25037 26.6871 1.89144C26.9591 2.5131 27.0174 3.3193 26.8231 3.97009C26.7357 4.26149 26.0655 5.56308 25.3273 6.87437L23.9771 9.25413L16.8864 9.28327L9.80541 9.3027L8.63981 7.24348C7.29938 4.84429 7.10511 4.3392 7.1731 3.55242C7.3188 1.90116 8.66895 0.628714 10.2911 0.619001C10.9322 0.619001 11.1167 0.667567 13.0691 1.46406L15.1574 2.30912L19.0428 1.2018C20.4849 0.795372 21.7899 0.424336 22.5189 0.217076ZM9.76655 14.1399C9.98995 13.4309 10.2134 12.7509 10.2619 12.6247L10.3493 12.411H16.8864H23.4235L23.8508 13.7708L24.2685 15.1307L24.9096 15.5387C26.1529 16.3449 27.3865 17.7533 28.0956 19.1617C28.3967 19.7445 33.263 34.3048 33.7196 35.9657C34.5258 38.8895 33.807 41.8326 31.7381 43.9987C30.4947 45.3002 29.1252 46.0579 27.4059 46.4173C26.5803 46.5921 25.9295 46.6018 17.1001 46.6018C11.1361 46.6018 7.44507 46.563 7.04682 46.5047C4.6962 46.1259 2.65641 44.8049 1.35482 42.8039C0.101805 40.8807 -0.286727 38.7438 0.208652 36.5097C0.470911 35.3344 5.60925 19.9582 6.0075 19.1617C6.67772 17.8019 7.65876 16.6363 8.8535 15.7815C9.33916 15.4318 9.34888 15.4221 9.76655 14.1399ZM18.6057 24.6109C18.6057 24.3098 18.2366 23.7853 17.8383 23.5133C17.0127 22.9596 15.7694 23.5036 15.5557 24.5138C15.4879 24.8141 15.478 24.8149 14.8222 24.8631L14.8175 24.8634C14.0404 24.9217 13.4479 25.2228 12.9719 25.7862C12.496 26.369 12.3891 26.9032 12.3891 28.7196C12.3891 30.2349 12.4086 30.3612 12.632 30.8566C12.9914 31.6142 13.3993 32.0804 13.9627 32.3621C14.4581 32.6147 14.5066 32.6147 16.5367 32.6147H18.6057V33.3917V34.1688H16.0996C13.8559 34.1688 13.5645 34.1882 13.2633 34.3533C12.2532 34.8876 12.1366 36.2766 13.0496 36.9662C13.3702 37.2091 13.477 37.2285 14.4289 37.2576L15.4585 37.2965L15.6237 37.7724C16.0316 38.8992 17.4206 39.1906 18.2074 38.2969C18.3725 38.1124 18.528 37.8113 18.5571 37.6267L18.6251 37.2965L19.5673 37.2576C20.4026 37.2285 20.558 37.1993 20.9077 36.9662C21.1408 36.8108 21.3837 36.5388 21.5099 36.2863C21.7042 35.888 21.7139 35.7035 21.7139 33.6248C21.7139 31.4879 21.7042 31.3811 21.4808 30.9051C21.3545 30.6331 21.0826 30.2738 20.8786 30.1086C20.2278 29.5744 19.8684 29.5064 17.5663 29.5064H15.4974V28.739V27.962L18.1006 27.9328L20.7134 27.9037L21.0728 27.622C21.9762 26.9324 21.9179 25.7182 20.9466 25.0674C20.6552 24.8732 20.4998 24.844 19.6158 24.844C18.6251 24.844 18.6057 24.844 18.6057 24.6109Z"
    fill="url(#paint0_linear_27_508)"
  />
<defs>
<linearGradient
      id="paint0_linear_27_508"
      x1="1.16604e-06"
      y1="51.442"
      x2="27.8181"
      y2="1.62792"
      gradientUnits="userSpaceOnUse"
    >
<stop stop-color="#AB4EE9" />
<stop offset="1" stop-color="#2FFAA1" />
</linearGradient>
</defs>
</svg>
