<svg
  width="45"
  height="34"
  viewBox="0 0 45 34"
  fill="none"
  xmlns="http://www.w3.org/2000/svg"
>
<path
    fill-rule="evenodd"
    clip-rule="evenodd"
    d="M36.2112 0.158173C36.0442 0.237272 35.8157 0.439414 35.7102 0.606401L35.5081 0.905219V6.82006V12.7437H32.0365H28.565V16.6986V20.6536H29.6196H30.6743V23.176V25.7071L30.1733 25.9708C28.732 26.7266 27.897 28.3613 28.1255 29.996C28.4595 32.3075 30.7534 33.8455 33.0033 33.2655C34.1283 32.9666 35.1038 32.1493 35.6223 31.0507C35.886 30.4882 35.9036 30.4003 35.9036 29.4336C35.9036 28.4404 35.8948 28.4141 35.5784 27.7549C35.1917 26.9727 34.3656 26.1378 33.7152 25.8741L33.3109 25.7071V23.176V20.6536H34.4095H35.5081V16.6986V12.7437H36.8264H38.1447V16.6986V20.6536H41.045C43.7871 20.6536 43.9717 20.6448 44.2969 20.4778C44.5254 20.3636 44.7099 20.179 44.8242 19.9505C44.9912 19.6253 45 19.4407 45 16.6986C45 13.9565 44.9912 13.772 44.8242 13.4468C44.7099 13.2183 44.5254 13.0337 44.2969 12.9195C43.9717 12.7525 43.7871 12.7437 41.045 12.7437H38.1447V10.3268V7.90987H41.0187C43.708 7.90987 43.9102 7.90108 44.2529 7.73409C44.4814 7.61984 44.6836 7.43527 44.8066 7.21556C44.9912 6.88158 45 6.79369 45 3.95492C45 1.11615 44.9912 1.02826 44.8066 0.694288C44.6836 0.474569 44.4814 0.290005 44.2529 0.175751C43.9102 0.00876434 43.708 -2.44326e-05 40.2013 -2.44326e-05C36.8704 -2.44326e-05 36.4924 0.0175531 36.2112 0.158173ZM0.0981649 4.82511C-0.376429 2.79491 0.91552 0.694392 2.98088 0.123122C4.65954 -0.333894 6.59307 0.518616 7.41042 2.08302C8.052 3.33102 8.06958 4.51751 7.46315 5.7743C7.18191 6.34557 6.30304 7.20687 5.74055 7.47053L5.27475 7.69025V10.2126V12.7438H6.06574H6.85673V16.6987V20.6537H3.94765C1.0913 20.6537 1.02977 20.6537 0.687012 20.4603C0.019066 20.0824 0.00148843 20.0033 0.00148843 16.6987C0.00148843 14.0182 0.0102772 13.7633 0.168475 13.4645C0.440927 12.9371 0.880365 12.7438 1.83834 12.7438H2.63812V10.2126V7.69025L2.1811 7.47053C1.2407 7.03988 0.335462 5.88855 0.0981649 4.82511ZM18.6161 3.95503C18.6249 2.12696 19.785 0.615293 21.5427 0.140699C22.4831 -0.114175 23.5641 0.0176566 24.4518 0.501039C25.0582 0.826223 25.7965 1.64358 26.1305 2.34668C26.3941 2.90916 26.4117 2.99705 26.4117 3.96381C26.4117 4.95694 26.4029 4.98331 26.0865 5.64247C25.6998 6.42467 24.8737 7.2596 24.2233 7.52327L23.819 7.69025V10.2126V12.7438H24.8737H25.9283V16.6987V20.6537H22.5007H19.0731V16.6987V12.7438H20.1277H21.1824V10.2126V7.69025L20.7078 7.44417C19.3983 6.75864 18.6161 5.44912 18.6161 3.95503ZM9.49338 20.6536V16.6986V12.7437H12.9649H16.4365V16.6986V20.6536H15.3379H14.2393V23.1496V25.6544L14.7842 25.9444C17.1308 27.1924 17.6406 30.3476 15.7861 32.1932C13.7999 34.1795 10.592 33.5994 9.37912 31.0507C9.11546 30.4882 9.09788 30.4003 9.09788 29.4423C9.09788 28.4844 9.11546 28.3965 9.37912 27.834C9.73067 27.1045 10.4777 26.296 11.1281 25.9532L11.6027 25.7071V23.1759V20.6536H10.548H9.49338Z"
    fill="url(#paint0_linear_27_533)"
  />
<defs>
<linearGradient
      id="paint0_linear_27_533"
      x1="-11"
      y1="37.0001"
      x2="41.0477"
      y2="51.2531"
      gradientUnits="userSpaceOnUse"
    >
<stop stop-color="#AB4EE9" />
<stop offset="1" stop-color="#2FFAA1" />
</linearGradient>
</defs>
</svg>
