<svg
  width="45"
  height="38"
  viewBox="0 0 45 38"
  fill="none"
  xmlns="http://www.w3.org/2000/svg"
>
<path
    fill-rule="evenodd"
    clip-rule="evenodd"
    d="M15.3518 2.15966C15.8175 1.16667 16.5645 0.507608 17.619 0.138532C18.0232 -0.00206817 18.4714 -0.0108557 22.6279 0.00671935L27.1974 0.0242944L27.7861 0.305495C28.6122 0.692146 29.1921 1.26333 29.5964 2.08057L29.9215 2.73964L29.9654 4.14564L30.0094 5.56043L35.5016 5.60437L40.9938 5.6483L41.5825 5.87678C42.8655 6.37767 43.9024 7.33551 44.4736 8.54818C44.9394 9.54996 45.0009 10.0421 44.9745 12.7135L44.9482 15.0334L33.7265 18.7769L22.4961 22.5203L11.2744 18.7769L0.0439556 15.0334L0.0175931 12.7135C-0.0087695 10.0245 0.0527431 9.49724 0.527269 8.52182C1.10724 7.31793 2.14417 6.36888 3.40957 5.87678L3.99834 5.6483L9.49054 5.60437L14.9827 5.56043L15.0267 4.15443C15.0706 2.80115 15.0794 2.72206 15.3518 2.15966ZM26.2308 5.56043V4.63774V3.71505L22.5136 3.68869C19.4819 3.67111 18.7965 3.68869 18.7526 3.78535C18.735 3.84686 18.7262 4.27745 18.735 4.7344L18.7614 5.56043H22.4961H26.2308ZM0.343677 34.1236C-0.00622006 33.2935 1.47339e-05 32.3133 1.47339e-05 25.3851C1.47339e-05 19.4974 0.0263773 17.986 0.114252 18.0124C0.166978 18.0387 5.06162 19.6732 10.9844 21.6416L21.7491 25.2357H22.4961H23.243L34.0077 21.6416C39.9305 19.6732 44.8251 18.0387 44.8866 18.0124C45.0272 17.9596 45.0448 32.4502 44.8954 33.2499C44.8427 33.5311 44.6494 34.1023 44.4561 34.5065C44.0167 35.4468 43.0501 36.4486 42.1801 36.8704C42.0354 36.9401 41.9285 37.0009 41.8179 37.054C41.0084 37.4424 39.9995 37.4152 22.4961 37.4152C4.99261 37.4152 3.98369 37.4424 3.17421 37.054C3.06361 37.0009 2.95673 36.9401 2.81202 36.8704C2.01236 36.4837 1.01058 35.4731 0.579991 34.612C0.487155 34.4291 0.409176 34.2789 0.343677 34.1236Z"
    fill="url(#paint0_linear_27_520)"
  />
<defs>
<linearGradient
      id="paint0_linear_27_520"
      x1="-3.88687e-06"
      y1="39"
      x2="5.96615"
      y2="0.426635"
      gradientUnits="userSpaceOnUse"
    >
<stop stop-color="#AB4EE9" />
<stop offset="1" stop-color="#2FFAA1" />
</linearGradient>
</defs>
</svg>
