<svg
  width="45"
  height="33"
  viewBox="0 0 45 33"
  fill="none"
  xmlns="http://www.w3.org/2000/svg"
>
<path
    fill-rule="evenodd"
    clip-rule="evenodd"
    d="M25.6731 0.213657C25.4331 0.348071 25.1259 0.6169 24.9819 0.828123C24.7802 1.11615 23.7913 4.46691 20.5366 15.8441C18.2419 23.8994 16.3601 30.6393 16.3601 30.8313C16.3601 31.3306 16.8018 32.1371 17.2338 32.4251C17.7523 32.7611 18.2227 32.8571 18.8468 32.7323C19.2692 32.6459 19.4517 32.5403 19.8069 32.1755L20.2582 31.7338L24.4538 17.0443C26.8733 8.55695 28.6494 2.19147 28.6494 1.96104C28.6494 1.40418 28.227 0.626501 27.7565 0.309667C27.1997 -0.0647727 26.2684 -0.103177 25.6731 0.213657ZM9.54341 6.27197C9.28419 6.34877 8.14166 7.42409 4.81011 10.746C2.24664 13.2999 0.326431 15.2873 0.201618 15.5082C-0.067211 16.0266 -0.067211 16.8139 0.201618 17.3323C0.326431 17.5532 2.24664 19.5406 4.81011 22.0945C8.56411 25.8293 9.26498 26.4821 9.60102 26.5781C10.3979 26.8086 11.0316 26.6549 11.6268 26.0789C12.1741 25.57 12.3757 24.9172 12.2221 24.1683C12.1165 23.6786 12.0397 23.5922 8.5065 20.0494L4.89652 16.4202L8.5065 12.7911C12.0109 9.27709 12.1165 9.16187 12.2125 8.69142C12.5581 7.06885 11.1372 5.79191 9.54341 6.27197ZM32.8259 7.6353C33.0371 6.96323 33.45 6.51198 34.0932 6.28155C34.5541 6.11834 34.8997 6.11834 35.4086 6.26235C35.7446 6.35836 36.4455 7.01123 40.1995 10.746C42.8302 13.3671 44.6832 15.2777 44.7984 15.5081C44.9328 15.7578 45 16.0746 45 16.4202C45 16.7659 44.9328 17.0827 44.7984 17.3323C44.6832 17.5628 42.8302 19.483 40.1995 22.0944C36.1479 26.1365 35.7638 26.4821 35.351 26.5973C33.834 27.0006 32.4707 25.7332 32.7875 24.1971L32.8931 23.669L36.5031 20.0494L40.1131 16.4202L36.5031 12.791L32.8931 9.17146L32.7875 8.64341C32.7011 8.21136 32.7011 8.02894 32.8259 7.6353Z"
    fill="black"
  />
<path
    fill-rule="evenodd"
    clip-rule="evenodd"
    d="M25.6731 0.213657C25.4331 0.348071 25.1259 0.6169 24.9819 0.828123C24.7802 1.11615 23.7913 4.46691 20.5366 15.8441C18.2419 23.8994 16.3601 30.6393 16.3601 30.8313C16.3601 31.3306 16.8018 32.1371 17.2338 32.4251C17.7523 32.7611 18.2227 32.8571 18.8468 32.7323C19.2692 32.6459 19.4517 32.5403 19.8069 32.1755L20.2582 31.7338L24.4538 17.0443C26.8733 8.55695 28.6494 2.19147 28.6494 1.96104C28.6494 1.40418 28.227 0.626501 27.7565 0.309667C27.1997 -0.0647727 26.2684 -0.103177 25.6731 0.213657ZM9.54341 6.27197C9.28419 6.34877 8.14166 7.42409 4.81011 10.746C2.24664 13.2999 0.326431 15.2873 0.201618 15.5082C-0.067211 16.0266 -0.067211 16.8139 0.201618 17.3323C0.326431 17.5532 2.24664 19.5406 4.81011 22.0945C8.56411 25.8293 9.26498 26.4821 9.60102 26.5781C10.3979 26.8086 11.0316 26.6549 11.6268 26.0789C12.1741 25.57 12.3757 24.9172 12.2221 24.1683C12.1165 23.6786 12.0397 23.5922 8.5065 20.0494L4.89652 16.4202L8.5065 12.7911C12.0109 9.27709 12.1165 9.16187 12.2125 8.69142C12.5581 7.06885 11.1372 5.79191 9.54341 6.27197ZM32.8259 7.6353C33.0371 6.96323 33.45 6.51198 34.0932 6.28155C34.5541 6.11834 34.8997 6.11834 35.4086 6.26235C35.7446 6.35836 36.4455 7.01123 40.1995 10.746C42.8302 13.3671 44.6832 15.2777 44.7984 15.5081C44.9328 15.7578 45 16.0746 45 16.4202C45 16.7659 44.9328 17.0827 44.7984 17.3323C44.6832 17.5628 42.8302 19.483 40.1995 22.0944C36.1479 26.1365 35.7638 26.4821 35.351 26.5973C33.834 27.0006 32.4707 25.7332 32.7875 24.1971L32.8931 23.669L36.5031 20.0494L40.1131 16.4202L36.5031 12.791L32.8931 9.17146L32.7875 8.64341C32.7011 8.21136 32.7011 8.02894 32.8259 7.6353Z"
    fill="url(#paint0_linear_27_532)"
  />
<defs>
<linearGradient
      id="paint0_linear_27_532"
      x1="-2"
      y1="25.0001"
      x2="46.5339"
      y2="27.7622"
      gradientUnits="userSpaceOnUse"
    >
<stop stop-color="#AB4EE9" />
<stop offset="1" stop-color="#2FFAA1" />
</linearGradient>
</defs>
</svg>
